<svg id="visual" viewBox="0 0 1500 300" width="1500" height="300" xmlns="http://www.w3.org/2000/svg" xmlns:xlink="http://www.w3.org/1999/xlink" version="1.1"><path d="M0 158L10.8 154.2C21.7 150.3 43.3 142.7 65 146C86.7 149.3 108.3 163.7 130.2 169.2C152 174.7 174 171.3 195.8 173C217.7 174.7 239.3 181.3 261 182.7C282.7 184 304.3 180 326 169.7C347.7 159.3 369.3 142.7 391.2 136.8C413 131 435 136 456.8 143.5C478.7 151 500.3 161 522 167.8C543.7 174.7 565.3 178.3 587 174.7C608.7 171 630.3 160 652 156.8C673.7 153.7 695.3 158.3 717.2 160.2C739 162 761 161 782.8 154.8C804.7 148.7 826.3 137.3 848 139.3C869.7 141.3 891.3 156.7 913 158.3C934.7 160 956.3 148 978 148.3C999.7 148.7 1021.3 161.3 1043.2 159.5C1065 157.7 1087 141.3 1108.8 136.2C1130.7 131 1152.3 137 1174 141.2C1195.7 145.3 1217.3 147.7 1239 146.8C1260.7 146 1282.3 142 1304.2 144.8C1326 147.7 1348 157.3 1369.8 163.7C1391.7 170 1413.3 173 1435 166.7C1456.7 160.3 1478.3 144.7 1489.2 136.8L1500 129L1500 301L1489.2 301C1478.3 301 1456.7 301 1435 301C1413.3 301 1391.7 301 1369.8 301C1348 301 1326 301 1304.2 301C1282.3 301 1260.7 301 1239 301C1217.3 301 1195.7 301 1174 301C1152.3 301 1130.7 301 1108.8 301C1087 301 1065 301 1043.2 301C1021.3 301 999.7 301 978 301C956.3 301 934.7 301 913 301C891.3 301 869.7 301 848 301C826.3 301 804.7 301 782.8 301C761 301 739 301 717.2 301C695.3 301 673.7 301 652 301C630.3 301 608.7 301 587 301C565.3 301 543.7 301 522 301C500.3 301 478.7 301 456.8 301C435 301 413 301 391.2 301C369.3 301 347.7 301 326 301C304.3 301 282.7 301 261 301C239.3 301 217.7 301 195.8 301C174 301 152 301 130.2 301C108.3 301 86.7 301 65 301C43.3 301 21.7 301 10.8 301L0 301Z" fill="#ffbf86"></path><path d="M0 173L10.8 179.2C21.7 185.3 43.3 197.7 65 194.7C86.7 191.7 108.3 173.3 130.2 169.3C152 165.3 174 175.7 195.8 177.5C217.7 179.3 239.3 172.7 261 167.5C282.7 162.3 304.3 158.7 326 164.5C347.7 170.3 369.3 185.7 391.2 188.5C413 191.3 435 181.7 456.8 181.8C478.7 182 500.3 192 522 193.3C543.7 194.7 565.3 187.3 587 186.5C608.7 185.7 630.3 191.3 652 191.2C673.7 191 695.3 185 717.2 178C739 171 761 163 782.8 168.7C804.7 174.3 826.3 193.7 848 202.2C869.7 210.7 891.3 208.3 913 202.3C934.7 196.3 956.3 186.7 978 181.8C999.7 177 1021.3 177 1043.2 174.5C1065 172 1087 167 1108.8 173C1130.7 179 1152.3 196 1174 197.3C1195.7 198.7 1217.3 184.3 1239 183.8C1260.7 183.3 1282.3 196.7 1304.2 204.2C1326 211.7 1348 213.3 1369.8 211.7C1391.7 210 1413.3 205 1435 203.2C1456.7 201.3 1478.3 202.7 1489.2 203.3L1500 204L1500 301L1489.2 301C1478.3 301 1456.7 301 1435 301C1413.3 301 1391.7 301 1369.8 301C1348 301 1326 301 1304.2 301C1282.3 301 1260.7 301 1239 301C1217.3 301 1195.7 301 1174 301C1152.3 301 1130.7 301 1108.8 301C1087 301 1065 301 1043.2 301C1021.3 301 999.7 301 978 301C956.3 301 934.7 301 913 301C891.3 301 869.7 301 848 301C826.3 301 804.7 301 782.8 301C761 301 739 301 717.2 301C695.3 301 673.7 301 652 301C630.3 301 608.7 301 587 301C565.3 301 543.7 301 522 301C500.3 301 478.7 301 456.8 301C435 301 413 301 391.2 301C369.3 301 347.7 301 326 301C304.3 301 282.7 301 261 301C239.3 301 217.7 301 195.8 301C174 301 152 301 130.2 301C108.3 301 86.7 301 65 301C43.3 301 21.7 301 10.8 301L0 301Z" fill="#ffcb81"></path><path d="M0 219L10.8 222C21.7 225 43.3 231 65 232.3C86.7 233.7 108.3 230.3 130.2 224.5C152 218.7 174 210.3 195.8 211.2C217.7 212 239.3 222 261 224C282.7 226 304.3 220 326 213.2C347.7 206.3 369.3 198.7 391.2 198.2C413 197.7 435 204.3 456.8 211.7C478.7 219 500.3 227 522 224.8C543.7 222.7 565.3 210.3 587 202.8C608.7 195.3 630.3 192.7 652 192C673.7 191.3 695.3 192.7 717.2 197.3C739 202 761 210 782.8 209C804.7 208 826.3 198 848 201.2C869.7 204.3 891.3 220.7 913 222.2C934.7 223.7 956.3 210.3 978 210.3C999.7 210.3 1021.3 223.7 1043.2 229.3C1065 235 1087 233 1108.8 233C1130.7 233 1152.3 235 1174 231.8C1195.7 228.7 1217.3 220.3 1239 215.7C1260.7 211 1282.3 210 1304.2 213.3C1326 216.7 1348 224.3 1369.8 227.7C1391.7 231 1413.3 230 1435 222.3C1456.7 214.7 1478.3 200.3 1489.2 193.2L1500 186L1500 301L1489.2 301C1478.3 301 1456.7 301 1435 301C1413.3 301 1391.7 301 1369.8 301C1348 301 1326 301 1304.2 301C1282.3 301 1260.7 301 1239 301C1217.3 301 1195.7 301 1174 301C1152.3 301 1130.7 301 1108.8 301C1087 301 1065 301 1043.2 301C1021.3 301 999.7 301 978 301C956.3 301 934.7 301 913 301C891.3 301 869.7 301 848 301C826.3 301 804.7 301 782.8 301C761 301 739 301 717.2 301C695.3 301 673.7 301 652 301C630.3 301 608.7 301 587 301C565.3 301 543.7 301 522 301C500.3 301 478.7 301 456.8 301C435 301 413 301 391.2 301C369.3 301 347.7 301 326 301C304.3 301 282.7 301 261 301C239.3 301 217.7 301 195.8 301C174 301 152 301 130.2 301C108.3 301 86.7 301 65 301C43.3 301 21.7 301 10.8 301L0 301Z" fill="#ffd87e"></path><path d="M0 217L10.8 219.3C21.7 221.7 43.3 226.3 65 227.7C86.7 229 108.3 227 130.2 225.2C152 223.3 174 221.7 195.8 221.2C217.7 220.7 239.3 221.3 261 224.5C282.7 227.7 304.3 233.3 326 233.7C347.7 234 369.3 229 391.2 225.8C413 222.7 435 221.3 456.8 220.5C478.7 219.7 500.3 219.3 522 220.2C543.7 221 565.3 223 587 228C608.7 233 630.3 241 652 246C673.7 251 695.3 253 717.2 251.3C739 249.7 761 244.3 782.8 243.5C804.7 242.7 826.3 246.3 848 247C869.7 247.7 891.3 245.3 913 241.5C934.7 237.7 956.3 232.3 978 234.8C999.7 237.3 1021.3 247.7 1043.2 250.5C1065 253.3 1087 248.7 1108.8 247.5C1130.7 246.3 1152.3 248.7 1174 250.8C1195.7 253 1217.3 255 1239 249.8C1260.7 244.7 1282.3 232.3 1304.2 229.8C1326 227.3 1348 234.7 1369.8 235.8C1391.7 237 1413.3 232 1435 229.2C1456.7 226.3 1478.3 225.7 1489.2 225.3L1500 225L1500 301L1489.2 301C1478.3 301 1456.7 301 1435 301C1413.3 301 1391.7 301 1369.8 301C1348 301 1326 301 1304.2 301C1282.3 301 1260.7 301 1239 301C1217.3 301 1195.7 301 1174 301C1152.3 301 1130.7 301 1108.8 301C1087 301 1065 301 1043.2 301C1021.3 301 999.7 301 978 301C956.3 301 934.7 301 913 301C891.3 301 869.7 301 848 301C826.3 301 804.7 301 782.8 301C761 301 739 301 717.2 301C695.3 301 673.7 301 652 301C630.3 301 608.7 301 587 301C565.3 301 543.7 301 522 301C500.3 301 478.7 301 456.8 301C435 301 413 301 391.2 301C369.3 301 347.7 301 326 301C304.3 301 282.7 301 261 301C239.3 301 217.7 301 195.8 301C174 301 152 301 130.2 301C108.3 301 86.7 301 65 301C43.3 301 21.7 301 10.8 301L0 301Z" fill="#ffe67d"></path><path d="M0 267L10.8 264C21.7 261 43.3 255 65 252.2C86.7 249.3 108.3 249.7 130.2 249.5C152 249.3 174 248.7 195.8 251.5C217.7 254.3 239.3 260.7 261 263.2C282.7 265.7 304.3 264.3 326 263.3C347.7 262.3 369.3 261.7 391.2 263.2C413 264.7 435 268.3 456.8 269.3C478.7 270.3 500.3 268.7 522 265.8C543.7 263 565.3 259 587 260.5C608.7 262 630.3 269 652 269.2C673.7 269.3 695.3 262.7 717.2 261.8C739 261 761 266 782.8 269C804.7 272 826.3 273 848 273.2C869.7 273.3 891.3 272.7 913 268.2C934.7 263.7 956.3 255.3 978 253.8C999.7 252.3 1021.3 257.7 1043.2 262.2C1065 266.7 1087 270.3 1108.8 271.7C1130.7 273 1152.3 272 1174 270.8C1195.7 269.7 1217.3 268.3 1239 267.8C1260.7 267.3 1282.3 267.7 1304.2 269.7C1326 271.7 1348 275.3 1369.8 276.8C1391.7 278.3 1413.3 277.7 1435 277.5C1456.7 277.3 1478.3 277.7 1489.2 277.8L1500 278L1500 301L1489.2 301C1478.3 301 1456.7 301 1435 301C1413.3 301 1391.7 301 1369.8 301C1348 301 1326 301 1304.2 301C1282.3 301 1260.7 301 1239 301C1217.3 301 1195.7 301 1174 301C1152.3 301 1130.7 301 1108.8 301C1087 301 1065 301 1043.2 301C1021.3 301 999.7 301 978 301C956.3 301 934.7 301 913 301C891.3 301 869.7 301 848 301C826.3 301 804.7 301 782.8 301C761 301 739 301 717.2 301C695.3 301 673.7 301 652 301C630.3 301 608.7 301 587 301C565.3 301 543.7 301 522 301C500.3 301 478.7 301 456.8 301C435 301 413 301 391.2 301C369.3 301 347.7 301 326 301C304.3 301 282.7 301 261 301C239.3 301 217.7 301 195.8 301C174 301 152 301 130.2 301C108.3 301 86.7 301 65 301C43.3 301 21.7 301 10.8 301L0 301Z" fill="#fff47d"></path></svg>