<svg id="visual" viewBox="0 0 1500 300" width="1500" height="300" xmlns="http://www.w3.org/2000/svg" xmlns:xlink="http://www.w3.org/1999/xlink" version="1.1"><path d="M0 76L10.8 78.5C21.7 81 43.3 86 65 86.5C86.7 87 108.3 83 130.2 86.7C152 90.3 174 101.7 195.8 107.8C217.7 114 239.3 115 261 114.2C282.7 113.3 304.3 110.7 326 109.2C347.7 107.7 369.3 107.3 391.2 101.8C413 96.3 435 85.7 456.8 82.3C478.7 79 500.3 83 522 84.2C543.7 85.3 565.3 83.7 587 86.8C608.7 90 630.3 98 652 101.3C673.7 104.7 695.3 103.3 717.2 99.3C739 95.3 761 88.7 782.8 85.8C804.7 83 826.3 84 848 88.2C869.7 92.3 891.3 99.7 913 98.7C934.7 97.7 956.3 88.3 978 90.8C999.7 93.3 1021.3 107.7 1043.2 108C1065 108.3 1087 94.7 1108.8 89.7C1130.7 84.7 1152.3 88.3 1174 88.3C1195.7 88.3 1217.3 84.7 1239 84.7C1260.7 84.7 1282.3 88.3 1304.2 93.2C1326 98 1348 104 1369.8 105.7C1391.7 107.3 1413.3 104.7 1435 99.3C1456.7 94 1478.3 86 1489.2 82L1500 78L1500 0L1489.2 0C1478.3 0 1456.7 0 1435 0C1413.3 0 1391.7 0 1369.8 0C1348 0 1326 0 1304.2 0C1282.3 0 1260.7 0 1239 0C1217.3 0 1195.7 0 1174 0C1152.3 0 1130.7 0 1108.8 0C1087 0 1065 0 1043.2 0C1021.3 0 999.7 0 978 0C956.3 0 934.7 0 913 0C891.3 0 869.7 0 848 0C826.3 0 804.7 0 782.8 0C761 0 739 0 717.2 0C695.3 0 673.7 0 652 0C630.3 0 608.7 0 587 0C565.3 0 543.7 0 522 0C500.3 0 478.7 0 456.8 0C435 0 413 0 391.2 0C369.3 0 347.7 0 326 0C304.3 0 282.7 0 261 0C239.3 0 217.7 0 195.8 0C174 0 152 0 130.2 0C108.3 0 86.7 0 65 0C43.3 0 21.7 0 10.8 0L0 0Z" fill="#c2f784"></path><path d="M0 71L10.8 73.5C21.7 76 43.3 81 65 84.3C86.7 87.7 108.3 89.3 130.2 88.8C152 88.3 174 85.7 195.8 81.3C217.7 77 239.3 71 261 72C282.7 73 304.3 81 326 86.2C347.7 91.3 369.3 93.7 391.2 94.2C413 94.7 435 93.3 456.8 89.5C478.7 85.7 500.3 79.3 522 76.5C543.7 73.7 565.3 74.3 587 74.8C608.7 75.3 630.3 75.7 652 74.2C673.7 72.7 695.3 69.3 717.2 70.5C739 71.7 761 77.3 782.8 76.7C804.7 76 826.3 69 848 70.8C869.7 72.7 891.3 83.3 913 87.3C934.7 91.3 956.3 88.7 978 85.7C999.7 82.7 1021.3 79.3 1043.2 76.7C1065 74 1087 72 1108.8 70.5C1130.7 69 1152.3 68 1174 68.5C1195.7 69 1217.3 71 1239 70C1260.7 69 1282.3 65 1304.2 63.7C1326 62.3 1348 63.7 1369.8 65.3C1391.7 67 1413.3 69 1435 72.8C1456.7 76.7 1478.3 82.3 1489.2 85.2L1500 88L1500 0L1489.2 0C1478.3 0 1456.7 0 1435 0C1413.3 0 1391.7 0 1369.8 0C1348 0 1326 0 1304.2 0C1282.3 0 1260.7 0 1239 0C1217.3 0 1195.7 0 1174 0C1152.3 0 1130.7 0 1108.8 0C1087 0 1065 0 1043.2 0C1021.3 0 999.7 0 978 0C956.3 0 934.7 0 913 0C891.3 0 869.7 0 848 0C826.3 0 804.7 0 782.8 0C761 0 739 0 717.2 0C695.3 0 673.7 0 652 0C630.3 0 608.7 0 587 0C565.3 0 543.7 0 522 0C500.3 0 478.7 0 456.8 0C435 0 413 0 391.2 0C369.3 0 347.7 0 326 0C304.3 0 282.7 0 261 0C239.3 0 217.7 0 195.8 0C174 0 152 0 130.2 0C108.3 0 86.7 0 65 0C43.3 0 21.7 0 10.8 0L0 0Z" fill="#d2f780"></path><path d="M0 69L10.8 68.5C21.7 68 43.3 67 65 67.2C86.7 67.3 108.3 68.7 130.2 68.8C152 69 174 68 195.8 64C217.7 60 239.3 53 261 55C282.7 57 304.3 68 326 67.5C347.7 67 369.3 55 391.2 52.8C413 50.7 435 58.3 456.8 58.8C478.7 59.3 500.3 52.7 522 53.2C543.7 53.7 565.3 61.3 587 63.7C608.7 66 630.3 63 652 60.3C673.7 57.7 695.3 55.3 717.2 53.8C739 52.3 761 51.7 782.8 50.2C804.7 48.7 826.3 46.3 848 45.8C869.7 45.3 891.3 46.7 913 49.2C934.7 51.7 956.3 55.3 978 59.3C999.7 63.3 1021.3 67.7 1043.2 67.3C1065 67 1087 62 1108.8 62.5C1130.7 63 1152.3 69 1174 72.7C1195.7 76.3 1217.3 77.7 1239 75.5C1260.7 73.3 1282.3 67.7 1304.2 61.7C1326 55.7 1348 49.3 1369.8 47.5C1391.7 45.7 1413.3 48.3 1435 54C1456.7 59.7 1478.3 68.3 1489.2 72.7L1500 77L1500 0L1489.2 0C1478.3 0 1456.7 0 1435 0C1413.3 0 1391.7 0 1369.8 0C1348 0 1326 0 1304.2 0C1282.3 0 1260.7 0 1239 0C1217.3 0 1195.7 0 1174 0C1152.3 0 1130.7 0 1108.8 0C1087 0 1065 0 1043.2 0C1021.3 0 999.7 0 978 0C956.3 0 934.7 0 913 0C891.3 0 869.7 0 848 0C826.3 0 804.7 0 782.8 0C761 0 739 0 717.2 0C695.3 0 673.7 0 652 0C630.3 0 608.7 0 587 0C565.3 0 543.7 0 522 0C500.3 0 478.7 0 456.8 0C435 0 413 0 391.2 0C369.3 0 347.7 0 326 0C304.3 0 282.7 0 261 0C239.3 0 217.7 0 195.8 0C174 0 152 0 130.2 0C108.3 0 86.7 0 65 0C43.3 0 21.7 0 10.8 0L0 0Z" fill="#e2f67e"></path><path d="M0 58L10.8 56.3C21.7 54.7 43.3 51.3 65 49.8C86.7 48.3 108.3 48.7 130.2 48.7C152 48.7 174 48.3 195.8 49.7C217.7 51 239.3 54 261 54.8C282.7 55.7 304.3 54.3 326 53.7C347.7 53 369.3 53 391.2 49C413 45 435 37 456.8 35.8C478.7 34.7 500.3 40.3 522 43.5C543.7 46.7 565.3 47.3 587 45.2C608.7 43 630.3 38 652 35.7C673.7 33.3 695.3 33.7 717.2 35C739 36.3 761 38.7 782.8 42.7C804.7 46.7 826.3 52.3 848 50.3C869.7 48.3 891.3 38.7 913 38.2C934.7 37.7 956.3 46.3 978 47C999.7 47.7 1021.3 40.3 1043.2 39.7C1065 39 1087 45 1108.8 44.5C1130.7 44 1152.3 37 1174 34.3C1195.7 31.7 1217.3 33.3 1239 36.8C1260.7 40.3 1282.3 45.7 1304.2 47.5C1326 49.3 1348 47.7 1369.8 44.2C1391.7 40.7 1413.3 35.3 1435 32.2C1456.7 29 1478.3 28 1489.2 27.5L1500 27L1500 0L1489.2 0C1478.3 0 1456.7 0 1435 0C1413.3 0 1391.7 0 1369.8 0C1348 0 1326 0 1304.2 0C1282.3 0 1260.7 0 1239 0C1217.3 0 1195.7 0 1174 0C1152.3 0 1130.7 0 1108.8 0C1087 0 1065 0 1043.2 0C1021.3 0 999.7 0 978 0C956.3 0 934.7 0 913 0C891.3 0 869.7 0 848 0C826.3 0 804.7 0 782.8 0C761 0 739 0 717.2 0C695.3 0 673.7 0 652 0C630.3 0 608.7 0 587 0C565.3 0 543.7 0 522 0C500.3 0 478.7 0 456.8 0C435 0 413 0 391.2 0C369.3 0 347.7 0 326 0C304.3 0 282.7 0 261 0C239.3 0 217.7 0 195.8 0C174 0 152 0 130.2 0C108.3 0 86.7 0 65 0C43.3 0 21.7 0 10.8 0L0 0Z" fill="#f1f57d"></path><path d="M0 30L10.8 30C21.7 30 43.3 30 65 28C86.7 26 108.3 22 130.2 22C152 22 174 26 195.8 28.8C217.7 31.7 239.3 33.3 261 31.5C282.7 29.7 304.3 24.3 326 24.2C347.7 24 369.3 29 391.2 30.5C413 32 435 30 456.8 27C478.7 24 500.3 20 522 21C543.7 22 565.3 28 587 30.2C608.7 32.3 630.3 30.7 652 29.7C673.7 28.7 695.3 28.3 717.2 28C739 27.7 761 27.3 782.8 25.2C804.7 23 826.3 19 848 18.3C869.7 17.7 891.3 20.3 913 21.3C934.7 22.3 956.3 21.7 978 21.5C999.7 21.3 1021.3 21.7 1043.2 20.5C1065 19.3 1087 16.7 1108.8 18.2C1130.7 19.7 1152.3 25.3 1174 26.5C1195.7 27.7 1217.3 24.3 1239 22C1260.7 19.7 1282.3 18.3 1304.2 20.5C1326 22.7 1348 28.3 1369.8 28C1391.7 27.7 1413.3 21.3 1435 21.3C1456.7 21.3 1478.3 27.7 1489.2 30.8L1500 34L1500 0L1489.2 0C1478.3 0 1456.7 0 1435 0C1413.3 0 1391.7 0 1369.8 0C1348 0 1326 0 1304.2 0C1282.3 0 1260.7 0 1239 0C1217.3 0 1195.7 0 1174 0C1152.3 0 1130.7 0 1108.8 0C1087 0 1065 0 1043.2 0C1021.3 0 999.7 0 978 0C956.3 0 934.7 0 913 0C891.3 0 869.7 0 848 0C826.3 0 804.7 0 782.8 0C761 0 739 0 717.2 0C695.3 0 673.7 0 652 0C630.3 0 608.7 0 587 0C565.3 0 543.7 0 522 0C500.3 0 478.7 0 456.8 0C435 0 413 0 391.2 0C369.3 0 347.7 0 326 0C304.3 0 282.7 0 261 0C239.3 0 217.7 0 195.8 0C174 0 152 0 130.2 0C108.3 0 86.7 0 65 0C43.3 0 21.7 0 10.8 0L0 0Z" fill="#fff47d"></path></svg>