<svg id="visual" viewBox="0 0 1500 200" width="1500" height="200" xmlns="http://www.w3.org/2000/svg" xmlns:xlink="http://www.w3.org/1999/xlink" version="1.1"><path d="M0 123L15.7 110C31.3 97 62.7 71 94 70.5C125.3 70 156.7 95 187.8 100.2C219 105.3 250 90.7 281.2 92C312.3 93.3 343.7 110.7 375 123.3C406.3 136 437.7 144 469 138.2C500.3 132.3 531.7 112.7 562.8 103.8C594 95 625 97 656.2 94C687.3 91 718.7 83 750 77.2C781.3 71.3 812.7 67.7 844 74.2C875.3 80.7 906.7 97.3 937.8 111.7C969 126 1000 138 1031.2 137.8C1062.3 137.7 1093.7 125.3 1125 118C1156.3 110.7 1187.7 108.3 1219 114.8C1250.3 121.3 1281.7 136.7 1312.8 144.8C1344 153 1375 154 1406.2 151.3C1437.3 148.7 1468.7 142.3 1484.3 139.2L1500 136L1500 201L1484.3 201C1468.7 201 1437.3 201 1406.2 201C1375 201 1344 201 1312.8 201C1281.7 201 1250.3 201 1219 201C1187.7 201 1156.3 201 1125 201C1093.7 201 1062.3 201 1031.2 201C1000 201 969 201 937.8 201C906.7 201 875.3 201 844 201C812.7 201 781.3 201 750 201C718.7 201 687.3 201 656.2 201C625 201 594 201 562.8 201C531.7 201 500.3 201 469 201C437.7 201 406.3 201 375 201C343.7 201 312.3 201 281.2 201C250 201 219 201 187.8 201C156.7 201 125.3 201 94 201C62.7 201 31.3 201 15.7 201L0 201Z" fill="#fff47d"></path><path d="M0 129L15.7 121.8C31.3 114.7 62.7 100.3 94 101.3C125.3 102.3 156.7 118.7 187.8 113.5C219 108.3 250 81.7 281.2 68.3C312.3 55 343.7 55 375 67.2C406.3 79.3 437.7 103.7 469 107.2C500.3 110.7 531.7 93.3 562.8 86C594 78.7 625 81.3 656.2 91.3C687.3 101.3 718.7 118.7 750 122.2C781.3 125.7 812.7 115.3 844 105.7C875.3 96 906.7 87 937.8 80.8C969 74.7 1000 71.3 1031.2 83.8C1062.3 96.3 1093.7 124.7 1125 129.3C1156.3 134 1187.7 115 1219 99.3C1250.3 83.7 1281.7 71.3 1312.8 65.3C1344 59.3 1375 59.7 1406.2 72.5C1437.3 85.3 1468.7 110.7 1484.3 123.3L1500 136L1500 201L1484.3 201C1468.7 201 1437.3 201 1406.2 201C1375 201 1344 201 1312.8 201C1281.7 201 1250.3 201 1219 201C1187.7 201 1156.3 201 1125 201C1093.7 201 1062.3 201 1031.2 201C1000 201 969 201 937.8 201C906.7 201 875.3 201 844 201C812.7 201 781.3 201 750 201C718.7 201 687.3 201 656.2 201C625 201 594 201 562.8 201C531.7 201 500.3 201 469 201C437.7 201 406.3 201 375 201C343.7 201 312.3 201 281.2 201C250 201 219 201 187.8 201C156.7 201 125.3 201 94 201C62.7 201 31.3 201 15.7 201L0 201Z" fill="#ffef7d"></path><path d="M0 134L15.7 134.3C31.3 134.7 62.7 135.3 94 131.2C125.3 127 156.7 118 187.8 122C219 126 250 143 281.2 135.8C312.3 128.7 343.7 97.3 375 88C406.3 78.7 437.7 91.3 469 92.2C500.3 93 531.7 82 562.8 76.8C594 71.7 625 72.3 656.2 81C687.3 89.7 718.7 106.3 750 114.8C781.3 123.3 812.7 123.7 844 119.7C875.3 115.7 906.7 107.3 937.8 113.5C969 119.7 1000 140.3 1031.2 149.5C1062.3 158.7 1093.7 156.3 1125 147.8C1156.3 139.3 1187.7 124.7 1219 120.5C1250.3 116.3 1281.7 122.7 1312.8 130C1344 137.3 1375 145.7 1406.2 140.5C1437.3 135.3 1468.7 116.7 1484.3 107.3L1500 98L1500 201L1484.3 201C1468.7 201 1437.3 201 1406.2 201C1375 201 1344 201 1312.8 201C1281.7 201 1250.3 201 1219 201C1187.7 201 1156.3 201 1125 201C1093.7 201 1062.3 201 1031.2 201C1000 201 969 201 937.8 201C906.7 201 875.3 201 844 201C812.7 201 781.3 201 750 201C718.7 201 687.3 201 656.2 201C625 201 594 201 562.8 201C531.7 201 500.3 201 469 201C437.7 201 406.3 201 375 201C343.7 201 312.3 201 281.2 201C250 201 219 201 187.8 201C156.7 201 125.3 201 94 201C62.7 201 31.3 201 15.7 201L0 201Z" fill="#ffea7d"></path><path d="M0 141L15.7 138.5C31.3 136 62.7 131 94 128.5C125.3 126 156.7 126 187.8 127C219 128 250 130 281.2 123.3C312.3 116.7 343.7 101.3 375 96.3C406.3 91.3 437.7 96.7 469 101.7C500.3 106.7 531.7 111.3 562.8 115.5C594 119.7 625 123.3 656.2 124.3C687.3 125.3 718.7 123.7 750 115.5C781.3 107.3 812.7 92.7 844 95.5C875.3 98.3 906.7 118.7 937.8 131.2C969 143.7 1000 148.3 1031.2 145.3C1062.3 142.3 1093.7 131.7 1125 122C1156.3 112.3 1187.7 103.7 1219 104.5C1250.3 105.3 1281.7 115.7 1312.8 120.3C1344 125 1375 124 1406.2 115.8C1437.3 107.7 1468.7 92.3 1484.3 84.7L1500 77L1500 201L1484.3 201C1468.7 201 1437.3 201 1406.2 201C1375 201 1344 201 1312.8 201C1281.7 201 1250.3 201 1219 201C1187.7 201 1156.3 201 1125 201C1093.7 201 1062.3 201 1031.2 201C1000 201 969 201 937.8 201C906.7 201 875.3 201 844 201C812.7 201 781.3 201 750 201C718.7 201 687.3 201 656.2 201C625 201 594 201 562.8 201C531.7 201 500.3 201 469 201C437.7 201 406.3 201 375 201C343.7 201 312.3 201 281.2 201C250 201 219 201 187.8 201C156.7 201 125.3 201 94 201C62.7 201 31.3 201 15.7 201L0 201Z" fill="#ffe47d"></path><path d="M0 133L15.7 135C31.3 137 62.7 141 94 142.7C125.3 144.3 156.7 143.7 187.8 141C219 138.3 250 133.7 281.2 130.7C312.3 127.7 343.7 126.3 375 133C406.3 139.7 437.7 154.3 469 159.7C500.3 165 531.7 161 562.8 148.7C594 136.3 625 115.7 656.2 117.7C687.3 119.7 718.7 144.3 750 152.5C781.3 160.7 812.7 152.3 844 148.2C875.3 144 906.7 144 937.8 147.5C969 151 1000 158 1031.2 154.3C1062.3 150.7 1093.7 136.3 1125 124.5C1156.3 112.7 1187.7 103.3 1219 110.3C1250.3 117.3 1281.7 140.7 1312.8 142.3C1344 144 1375 124 1406.2 121.7C1437.3 119.3 1468.7 134.7 1484.3 142.3L1500 150L1500 201L1484.3 201C1468.7 201 1437.3 201 1406.2 201C1375 201 1344 201 1312.8 201C1281.7 201 1250.3 201 1219 201C1187.7 201 1156.3 201 1125 201C1093.7 201 1062.3 201 1031.2 201C1000 201 969 201 937.8 201C906.7 201 875.3 201 844 201C812.7 201 781.3 201 750 201C718.7 201 687.3 201 656.2 201C625 201 594 201 562.8 201C531.7 201 500.3 201 469 201C437.7 201 406.3 201 375 201C343.7 201 312.3 201 281.2 201C250 201 219 201 187.8 201C156.7 201 125.3 201 94 201C62.7 201 31.3 201 15.7 201L0 201Z" fill="#ffdf7d"></path><path d="M0 134L15.7 131.8C31.3 129.7 62.7 125.3 94 124.8C125.3 124.3 156.7 127.7 187.8 129.2C219 130.7 250 130.3 281.2 131.5C312.3 132.7 343.7 135.3 375 135.3C406.3 135.3 437.7 132.7 469 126.5C500.3 120.3 531.7 110.7 562.8 107.5C594 104.3 625 107.7 656.2 117.5C687.3 127.3 718.7 143.7 750 146.2C781.3 148.7 812.7 137.3 844 133.5C875.3 129.7 906.7 133.3 937.8 134C969 134.7 1000 132.3 1031.2 129.8C1062.3 127.3 1093.7 124.7 1125 124.2C1156.3 123.7 1187.7 125.3 1219 129.5C1250.3 133.7 1281.7 140.3 1312.8 147.3C1344 154.3 1375 161.7 1406.2 154.3C1437.3 147 1468.7 125 1484.3 114L1500 103L1500 201L1484.3 201C1468.7 201 1437.3 201 1406.2 201C1375 201 1344 201 1312.8 201C1281.7 201 1250.3 201 1219 201C1187.7 201 1156.3 201 1125 201C1093.7 201 1062.3 201 1031.2 201C1000 201 969 201 937.8 201C906.7 201 875.3 201 844 201C812.7 201 781.3 201 750 201C718.7 201 687.3 201 656.2 201C625 201 594 201 562.8 201C531.7 201 500.3 201 469 201C437.7 201 406.3 201 375 201C343.7 201 312.3 201 281.2 201C250 201 219 201 187.8 201C156.7 201 125.3 201 94 201C62.7 201 31.3 201 15.7 201L0 201Z" fill="#ffda7e"></path><path d="M0 164L15.7 162C31.3 160 62.7 156 94 152.7C125.3 149.3 156.7 146.7 187.8 150.2C219 153.7 250 163.3 281.2 168C312.3 172.7 343.7 172.3 375 163C406.3 153.7 437.7 135.3 469 132.2C500.3 129 531.7 141 562.8 145.5C594 150 625 147 656.2 142.5C687.3 138 718.7 132 750 130.3C781.3 128.7 812.7 131.3 844 134.8C875.3 138.3 906.7 142.7 937.8 142.7C969 142.7 1000 138.3 1031.2 138.8C1062.3 139.3 1093.7 144.7 1125 144.8C1156.3 145 1187.7 140 1219 134C1250.3 128 1281.7 121 1312.8 119.7C1344 118.3 1375 122.7 1406.2 126.3C1437.3 130 1468.7 133 1484.3 134.5L1500 136L1500 201L1484.3 201C1468.7 201 1437.3 201 1406.2 201C1375 201 1344 201 1312.8 201C1281.7 201 1250.3 201 1219 201C1187.7 201 1156.3 201 1125 201C1093.7 201 1062.3 201 1031.2 201C1000 201 969 201 937.8 201C906.7 201 875.3 201 844 201C812.7 201 781.3 201 750 201C718.7 201 687.3 201 656.2 201C625 201 594 201 562.8 201C531.7 201 500.3 201 469 201C437.7 201 406.3 201 375 201C343.7 201 312.3 201 281.2 201C250 201 219 201 187.8 201C156.7 201 125.3 201 94 201C62.7 201 31.3 201 15.7 201L0 201Z" fill="#ffd67e"></path><path d="M0 147L15.7 151.2C31.3 155.3 62.7 163.7 94 161.7C125.3 159.7 156.7 147.3 187.8 143C219 138.7 250 142.3 281.2 146C312.3 149.7 343.7 153.3 375 154C406.3 154.7 437.7 152.3 469 152.7C500.3 153 531.7 156 562.8 159.7C594 163.3 625 167.7 656.2 170.8C687.3 174 718.7 176 750 171.2C781.3 166.3 812.7 154.7 844 152.7C875.3 150.7 906.7 158.3 937.8 161.2C969 164 1000 162 1031.2 161.5C1062.3 161 1093.7 162 1125 158.5C1156.3 155 1187.7 147 1219 145.5C1250.3 144 1281.7 149 1312.8 155.2C1344 161.3 1375 168.7 1406.2 167.2C1437.3 165.7 1468.7 155.3 1484.3 150.2L1500 145L1500 201L1484.3 201C1468.7 201 1437.3 201 1406.2 201C1375 201 1344 201 1312.8 201C1281.7 201 1250.3 201 1219 201C1187.7 201 1156.3 201 1125 201C1093.7 201 1062.3 201 1031.2 201C1000 201 969 201 937.8 201C906.7 201 875.3 201 844 201C812.7 201 781.3 201 750 201C718.7 201 687.3 201 656.2 201C625 201 594 201 562.8 201C531.7 201 500.3 201 469 201C437.7 201 406.3 201 375 201C343.7 201 312.3 201 281.2 201C250 201 219 201 187.8 201C156.7 201 125.3 201 94 201C62.7 201 31.3 201 15.7 201L0 201Z" fill="#ffd17f"></path><path d="M0 171L15.7 166.2C31.3 161.3 62.7 151.7 94 152C125.3 152.3 156.7 162.7 187.8 163.5C219 164.3 250 155.7 281.2 157.2C312.3 158.7 343.7 170.3 375 170.7C406.3 171 437.7 160 469 154.8C500.3 149.7 531.7 150.3 562.8 154C594 157.7 625 164.3 656.2 169.8C687.3 175.3 718.7 179.7 750 178C781.3 176.3 812.7 168.7 844 163.3C875.3 158 906.7 155 937.8 152.8C969 150.7 1000 149.3 1031.2 151.8C1062.3 154.3 1093.7 160.7 1125 165.8C1156.3 171 1187.7 175 1219 177.2C1250.3 179.3 1281.7 179.7 1312.8 179.5C1344 179.3 1375 178.7 1406.2 172.3C1437.3 166 1468.7 154 1484.3 148L1500 142L1500 201L1484.3 201C1468.7 201 1437.3 201 1406.2 201C1375 201 1344 201 1312.8 201C1281.7 201 1250.3 201 1219 201C1187.7 201 1156.3 201 1125 201C1093.7 201 1062.3 201 1031.2 201C1000 201 969 201 937.8 201C906.7 201 875.3 201 844 201C812.7 201 781.3 201 750 201C718.7 201 687.3 201 656.2 201C625 201 594 201 562.8 201C531.7 201 500.3 201 469 201C437.7 201 406.3 201 375 201C343.7 201 312.3 201 281.2 201C250 201 219 201 187.8 201C156.7 201 125.3 201 94 201C62.7 201 31.3 201 15.7 201L0 201Z" fill="#ffcc81"></path><path d="M0 183L15.7 182C31.3 181 62.7 179 94 173.8C125.3 168.7 156.7 160.3 187.8 158.2C219 156 250 160 281.2 160.3C312.3 160.7 343.7 157.3 375 160.7C406.3 164 437.7 174 469 175.5C500.3 177 531.7 170 562.8 167.8C594 165.7 625 168.3 656.2 168.8C687.3 169.3 718.7 167.7 750 166.3C781.3 165 812.7 164 844 161.7C875.3 159.3 906.7 155.7 937.8 153.7C969 151.7 1000 151.3 1031.2 154.7C1062.3 158 1093.7 165 1125 165.8C1156.3 166.7 1187.7 161.3 1219 158.7C1250.3 156 1281.7 156 1312.8 159.2C1344 162.3 1375 168.7 1406.2 170.5C1437.3 172.3 1468.7 169.7 1484.3 168.3L1500 167L1500 201L1484.3 201C1468.7 201 1437.3 201 1406.2 201C1375 201 1344 201 1312.8 201C1281.7 201 1250.3 201 1219 201C1187.7 201 1156.3 201 1125 201C1093.7 201 1062.3 201 1031.2 201C1000 201 969 201 937.8 201C906.7 201 875.3 201 844 201C812.7 201 781.3 201 750 201C718.7 201 687.3 201 656.2 201C625 201 594 201 562.8 201C531.7 201 500.3 201 469 201C437.7 201 406.3 201 375 201C343.7 201 312.3 201 281.2 201C250 201 219 201 187.8 201C156.7 201 125.3 201 94 201C62.7 201 31.3 201 15.7 201L0 201Z" fill="#ffc882"></path><path d="M0 174L15.7 172.3C31.3 170.7 62.7 167.3 94 168.3C125.3 169.3 156.7 174.7 187.8 178.7C219 182.7 250 185.3 281.2 183.3C312.3 181.3 343.7 174.7 375 173C406.3 171.3 437.7 174.7 469 175C500.3 175.3 531.7 172.7 562.8 170.7C594 168.7 625 167.3 656.2 169.8C687.3 172.3 718.7 178.7 750 181.7C781.3 184.7 812.7 184.3 844 184.5C875.3 184.7 906.7 185.3 937.8 183C969 180.7 1000 175.3 1031.2 173.7C1062.3 172 1093.7 174 1125 176.5C1156.3 179 1187.7 182 1219 180.8C1250.3 179.7 1281.7 174.3 1312.8 173.2C1344 172 1375 175 1406.2 174.7C1437.3 174.3 1468.7 170.7 1484.3 168.8L1500 167L1500 201L1484.3 201C1468.7 201 1437.3 201 1406.2 201C1375 201 1344 201 1312.8 201C1281.7 201 1250.3 201 1219 201C1187.7 201 1156.3 201 1125 201C1093.7 201 1062.3 201 1031.2 201C1000 201 969 201 937.8 201C906.7 201 875.3 201 844 201C812.7 201 781.3 201 750 201C718.7 201 687.3 201 656.2 201C625 201 594 201 562.8 201C531.7 201 500.3 201 469 201C437.7 201 406.3 201 375 201C343.7 201 312.3 201 281.2 201C250 201 219 201 187.8 201C156.7 201 125.3 201 94 201C62.7 201 31.3 201 15.7 201L0 201Z" fill="#ffc384"></path><path d="M0 185L15.7 185.5C31.3 186 62.7 187 94 186C125.3 185 156.7 182 187.8 179.8C219 177.7 250 176.3 281.2 177C312.3 177.7 343.7 180.3 375 182.2C406.3 184 437.7 185 469 185.3C500.3 185.7 531.7 185.3 562.8 185C594 184.7 625 184.3 656.2 183.7C687.3 183 718.7 182 750 181.2C781.3 180.3 812.7 179.7 844 181.3C875.3 183 906.7 187 937.8 188.2C969 189.3 1000 187.7 1031.2 187.3C1062.3 187 1093.7 188 1125 188.3C1156.3 188.7 1187.7 188.3 1219 187.3C1250.3 186.3 1281.7 184.7 1312.8 184C1344 183.3 1375 183.7 1406.2 184C1437.3 184.3 1468.7 184.7 1484.3 184.8L1500 185L1500 201L1484.3 201C1468.7 201 1437.3 201 1406.2 201C1375 201 1344 201 1312.8 201C1281.7 201 1250.3 201 1219 201C1187.7 201 1156.3 201 1125 201C1093.7 201 1062.3 201 1031.2 201C1000 201 969 201 937.8 201C906.7 201 875.3 201 844 201C812.7 201 781.3 201 750 201C718.7 201 687.3 201 656.2 201C625 201 594 201 562.8 201C531.7 201 500.3 201 469 201C437.7 201 406.3 201 375 201C343.7 201 312.3 201 281.2 201C250 201 219 201 187.8 201C156.7 201 125.3 201 94 201C62.7 201 31.3 201 15.7 201L0 201Z" fill="#ffbf86"></path></svg>