<svg id="visual" viewBox="0 0 1500 200" width="1500" height="200" xmlns="http://www.w3.org/2000/svg" xmlns:xlink="http://www.w3.org/1999/xlink" version="1.1"><path d="M0 119L15.7 115.3C31.3 111.7 62.7 104.3 94 108.7C125.3 113 156.7 129 187.8 124.3C219 119.7 250 94.3 281.2 90.5C312.3 86.7 343.7 104.3 375 110.5C406.3 116.7 437.7 111.3 469 112.8C500.3 114.3 531.7 122.7 562.8 125.3C594 128 625 125 656.2 121.7C687.3 118.3 718.7 114.7 750 105.5C781.3 96.3 812.7 81.7 844 80C875.3 78.3 906.7 89.7 937.8 101.8C969 114 1000 127 1031.2 125.8C1062.3 124.7 1093.7 109.3 1125 93.2C1156.3 77 1187.7 60 1219 54.2C1250.3 48.3 1281.7 53.7 1312.8 61.5C1344 69.3 1375 79.7 1406.2 89.8C1437.3 100 1468.7 110 1484.3 115L1500 120L1500 0L1484.3 0C1468.7 0 1437.3 0 1406.2 0C1375 0 1344 0 1312.8 0C1281.7 0 1250.3 0 1219 0C1187.7 0 1156.3 0 1125 0C1093.7 0 1062.3 0 1031.2 0C1000 0 969 0 937.8 0C906.7 0 875.3 0 844 0C812.7 0 781.3 0 750 0C718.7 0 687.3 0 656.2 0C625 0 594 0 562.8 0C531.7 0 500.3 0 469 0C437.7 0 406.3 0 375 0C343.7 0 312.3 0 281.2 0C250 0 219 0 187.8 0C156.7 0 125.3 0 94 0C62.7 0 31.3 0 15.7 0L0 0Z" fill="#c2f784"></path><path d="M0 51L15.7 51C31.3 51 62.7 51 94 59.7C125.3 68.3 156.7 85.7 187.8 94.3C219 103 250 103 281.2 100.3C312.3 97.7 343.7 92.3 375 84.7C406.3 77 437.7 67 469 69.8C500.3 72.7 531.7 88.3 562.8 89.7C594 91 625 78 656.2 81.5C687.3 85 718.7 105 750 105.2C781.3 105.3 812.7 85.7 844 78C875.3 70.3 906.7 74.7 937.8 72C969 69.3 1000 59.7 1031.2 69.3C1062.3 79 1093.7 108 1125 110C1156.3 112 1187.7 87 1219 85.7C1250.3 84.3 1281.7 106.7 1312.8 107.7C1344 108.7 1375 88.3 1406.2 82.8C1437.3 77.3 1468.7 86.7 1484.3 91.3L1500 96L1500 0L1484.3 0C1468.7 0 1437.3 0 1406.2 0C1375 0 1344 0 1312.8 0C1281.7 0 1250.3 0 1219 0C1187.7 0 1156.3 0 1125 0C1093.7 0 1062.3 0 1031.2 0C1000 0 969 0 937.8 0C906.7 0 875.3 0 844 0C812.7 0 781.3 0 750 0C718.7 0 687.3 0 656.2 0C625 0 594 0 562.8 0C531.7 0 500.3 0 469 0C437.7 0 406.3 0 375 0C343.7 0 312.3 0 281.2 0C250 0 219 0 187.8 0C156.7 0 125.3 0 94 0C62.7 0 31.3 0 15.7 0L0 0Z" fill="#ccf27f"></path><path d="M0 42L15.7 48.2C31.3 54.3 62.7 66.7 94 76.8C125.3 87 156.7 95 187.8 89.7C219 84.3 250 65.7 281.2 67.7C312.3 69.7 343.7 92.3 375 104.5C406.3 116.7 437.7 118.3 469 114C500.3 109.7 531.7 99.3 562.8 87.2C594 75 625 61 656.2 64.7C687.3 68.3 718.7 89.7 750 104C781.3 118.3 812.7 125.7 844 128.8C875.3 132 906.7 131 937.8 115.3C969 99.7 1000 69.3 1031.2 68.8C1062.3 68.3 1093.7 97.7 1125 98.3C1156.3 99 1187.7 71 1219 59C1250.3 47 1281.7 51 1312.8 66C1344 81 1375 107 1406.2 119C1437.3 131 1468.7 129 1484.3 128L1500 127L1500 0L1484.3 0C1468.7 0 1437.3 0 1406.2 0C1375 0 1344 0 1312.8 0C1281.7 0 1250.3 0 1219 0C1187.7 0 1156.3 0 1125 0C1093.7 0 1062.3 0 1031.2 0C1000 0 969 0 937.8 0C906.7 0 875.3 0 844 0C812.7 0 781.3 0 750 0C718.7 0 687.3 0 656.2 0C625 0 594 0 562.8 0C531.7 0 500.3 0 469 0C437.7 0 406.3 0 375 0C343.7 0 312.3 0 281.2 0C250 0 219 0 187.8 0C156.7 0 125.3 0 94 0C62.7 0 31.3 0 15.7 0L0 0Z" fill="#d5ec7b"></path><path d="M0 30L15.7 40.7C31.3 51.3 62.7 72.7 94 75.7C125.3 78.7 156.7 63.3 187.8 62.7C219 62 250 76 281.2 84.8C312.3 93.7 343.7 97.3 375 102C406.3 106.7 437.7 112.3 469 105.2C500.3 98 531.7 78 562.8 73.2C594 68.3 625 78.7 656.2 77.7C687.3 76.7 718.7 64.3 750 57.7C781.3 51 812.7 50 844 58C875.3 66 906.7 83 937.8 85.5C969 88 1000 76 1031.2 67.5C1062.3 59 1093.7 54 1125 51C1156.3 48 1187.7 47 1219 47.5C1250.3 48 1281.7 50 1312.8 48.7C1344 47.3 1375 42.7 1406.2 52.8C1437.3 63 1468.7 88 1484.3 100.5L1500 113L1500 0L1484.3 0C1468.7 0 1437.3 0 1406.2 0C1375 0 1344 0 1312.8 0C1281.7 0 1250.3 0 1219 0C1187.7 0 1156.3 0 1125 0C1093.7 0 1062.3 0 1031.2 0C1000 0 969 0 937.8 0C906.7 0 875.3 0 844 0C812.7 0 781.3 0 750 0C718.7 0 687.3 0 656.2 0C625 0 594 0 562.8 0C531.7 0 500.3 0 469 0C437.7 0 406.3 0 375 0C343.7 0 312.3 0 281.2 0C250 0 219 0 187.8 0C156.7 0 125.3 0 94 0C62.7 0 31.3 0 15.7 0L0 0Z" fill="#dee779"></path><path d="M0 57L15.7 59C31.3 61 62.7 65 94 66C125.3 67 156.7 65 187.8 62.5C219 60 250 57 281.2 58.7C312.3 60.3 343.7 66.7 375 62.5C406.3 58.3 437.7 43.7 469 48.7C500.3 53.7 531.7 78.3 562.8 82.8C594 87.3 625 71.7 656.2 68.2C687.3 64.7 718.7 73.3 750 78.7C781.3 84 812.7 86 844 83.8C875.3 81.7 906.7 75.3 937.8 71.7C969 68 1000 67 1031.2 60.3C1062.3 53.7 1093.7 41.3 1125 44.3C1156.3 47.3 1187.7 65.7 1219 73.3C1250.3 81 1281.7 78 1312.8 75C1344 72 1375 69 1406.2 74.2C1437.3 79.3 1468.7 92.7 1484.3 99.3L1500 106L1500 0L1484.3 0C1468.7 0 1437.3 0 1406.2 0C1375 0 1344 0 1312.8 0C1281.7 0 1250.3 0 1219 0C1187.7 0 1156.3 0 1125 0C1093.7 0 1062.3 0 1031.2 0C1000 0 969 0 937.8 0C906.7 0 875.3 0 844 0C812.7 0 781.3 0 750 0C718.7 0 687.3 0 656.2 0C625 0 594 0 562.8 0C531.7 0 500.3 0 469 0C437.7 0 406.3 0 375 0C343.7 0 312.3 0 281.2 0C250 0 219 0 187.8 0C156.7 0 125.3 0 94 0C62.7 0 31.3 0 15.7 0L0 0Z" fill="#e5e277"></path><path d="M0 27L15.7 31C31.3 35 62.7 43 94 53.3C125.3 63.7 156.7 76.3 187.8 73.5C219 70.7 250 52.3 281.2 51.3C312.3 50.3 343.7 66.7 375 70.8C406.3 75 437.7 67 469 64.8C500.3 62.7 531.7 66.3 562.8 70.7C594 75 625 80 656.2 72.8C687.3 65.7 718.7 46.3 750 47.3C781.3 48.3 812.7 69.7 844 71.8C875.3 74 906.7 57 937.8 47C969 37 1000 34 1031.2 41.8C1062.3 49.7 1093.7 68.3 1125 72.3C1156.3 76.3 1187.7 65.7 1219 62.5C1250.3 59.3 1281.7 63.7 1312.8 68.3C1344 73 1375 78 1406.2 74.5C1437.3 71 1468.7 59 1484.3 53L1500 47L1500 0L1484.3 0C1468.7 0 1437.3 0 1406.2 0C1375 0 1344 0 1312.8 0C1281.7 0 1250.3 0 1219 0C1187.7 0 1156.3 0 1125 0C1093.7 0 1062.3 0 1031.2 0C1000 0 969 0 937.8 0C906.7 0 875.3 0 844 0C812.7 0 781.3 0 750 0C718.7 0 687.3 0 656.2 0C625 0 594 0 562.8 0C531.7 0 500.3 0 469 0C437.7 0 406.3 0 375 0C343.7 0 312.3 0 281.2 0C250 0 219 0 187.8 0C156.7 0 125.3 0 94 0C62.7 0 31.3 0 15.7 0L0 0Z" fill="#ebdd77"></path><path d="M0 54L15.7 56.7C31.3 59.3 62.7 64.7 94 63.5C125.3 62.3 156.7 54.7 187.8 49.2C219 43.7 250 40.3 281.2 43.2C312.3 46 343.7 55 375 58.3C406.3 61.7 437.7 59.3 469 60.7C500.3 62 531.7 67 562.8 65.8C594 64.7 625 57.3 656.2 49.7C687.3 42 718.7 34 750 31.8C781.3 29.7 812.7 33.3 844 38.2C875.3 43 906.7 49 937.8 55.5C969 62 1000 69 1031.2 69.7C1062.3 70.3 1093.7 64.7 1125 56.5C1156.3 48.3 1187.7 37.7 1219 37.3C1250.3 37 1281.7 47 1312.8 51C1344 55 1375 53 1406.2 56.2C1437.3 59.3 1468.7 67.7 1484.3 71.8L1500 76L1500 0L1484.3 0C1468.7 0 1437.3 0 1406.2 0C1375 0 1344 0 1312.8 0C1281.7 0 1250.3 0 1219 0C1187.7 0 1156.3 0 1125 0C1093.7 0 1062.3 0 1031.2 0C1000 0 969 0 937.8 0C906.7 0 875.3 0 844 0C812.7 0 781.3 0 750 0C718.7 0 687.3 0 656.2 0C625 0 594 0 562.8 0C531.7 0 500.3 0 469 0C437.7 0 406.3 0 375 0C343.7 0 312.3 0 281.2 0C250 0 219 0 187.8 0C156.7 0 125.3 0 94 0C62.7 0 31.3 0 15.7 0L0 0Z" fill="#f1d777"></path><path d="M0 70L15.7 62.8C31.3 55.7 62.7 41.3 94 34.8C125.3 28.3 156.7 29.7 187.8 35.7C219 41.7 250 52.3 281.2 53C312.3 53.7 343.7 44.3 375 39.2C406.3 34 437.7 33 469 35.8C500.3 38.7 531.7 45.3 562.8 47.7C594 50 625 48 656.2 42.7C687.3 37.3 718.7 28.7 750 31.2C781.3 33.7 812.7 47.3 844 53.7C875.3 60 906.7 59 937.8 57.8C969 56.7 1000 55.3 1031.2 56.5C1062.3 57.7 1093.7 61.3 1125 63.7C1156.3 66 1187.7 67 1219 61.3C1250.3 55.7 1281.7 43.3 1312.8 37.2C1344 31 1375 31 1406.2 37.3C1437.3 43.7 1468.7 56.3 1484.3 62.7L1500 69L1500 0L1484.3 0C1468.7 0 1437.3 0 1406.2 0C1375 0 1344 0 1312.8 0C1281.7 0 1250.3 0 1219 0C1187.7 0 1156.3 0 1125 0C1093.7 0 1062.3 0 1031.2 0C1000 0 969 0 937.8 0C906.7 0 875.3 0 844 0C812.7 0 781.3 0 750 0C718.7 0 687.3 0 656.2 0C625 0 594 0 562.8 0C531.7 0 500.3 0 469 0C437.7 0 406.3 0 375 0C343.7 0 312.3 0 281.2 0C250 0 219 0 187.8 0C156.7 0 125.3 0 94 0C62.7 0 31.3 0 15.7 0L0 0Z" fill="#f5d279"></path><path d="M0 37L15.7 33.7C31.3 30.3 62.7 23.7 94 25.8C125.3 28 156.7 39 187.8 42.5C219 46 250 42 281.2 37.7C312.3 33.3 343.7 28.7 375 25C406.3 21.3 437.7 18.7 469 23.3C500.3 28 531.7 40 562.8 45.3C594 50.7 625 49.3 656.2 50.3C687.3 51.3 718.7 54.7 750 49.7C781.3 44.7 812.7 31.3 844 28C875.3 24.7 906.7 31.3 937.8 35C969 38.7 1000 39.3 1031.2 39.8C1062.3 40.3 1093.7 40.7 1125 40.7C1156.3 40.7 1187.7 40.3 1219 37.8C1250.3 35.3 1281.7 30.7 1312.8 29.8C1344 29 1375 32 1406.2 35.5C1437.3 39 1468.7 43 1484.3 45L1500 47L1500 0L1484.3 0C1468.7 0 1437.3 0 1406.2 0C1375 0 1344 0 1312.8 0C1281.7 0 1250.3 0 1219 0C1187.7 0 1156.3 0 1125 0C1093.7 0 1062.3 0 1031.2 0C1000 0 969 0 937.8 0C906.7 0 875.3 0 844 0C812.7 0 781.3 0 750 0C718.7 0 687.3 0 656.2 0C625 0 594 0 562.8 0C531.7 0 500.3 0 469 0C437.7 0 406.3 0 375 0C343.7 0 312.3 0 281.2 0C250 0 219 0 187.8 0C156.7 0 125.3 0 94 0C62.7 0 31.3 0 15.7 0L0 0Z" fill="#f9cd7b"></path><path d="M0 26L15.7 26C31.3 26 62.7 26 94 24C125.3 22 156.7 18 187.8 18.5C219 19 250 24 281.2 28.8C312.3 33.7 343.7 38.3 375 36.3C406.3 34.3 437.7 25.7 469 20.5C500.3 15.3 531.7 13.7 562.8 17.7C594 21.7 625 31.3 656.2 36.5C687.3 41.7 718.7 42.3 750 42.5C781.3 42.7 812.7 42.3 844 37.2C875.3 32 906.7 22 937.8 22.3C969 22.7 1000 33.3 1031.2 34.2C1062.3 35 1093.7 26 1125 25C1156.3 24 1187.7 31 1219 34C1250.3 37 1281.7 36 1312.8 35.3C1344 34.7 1375 34.3 1406.2 31.7C1437.3 29 1468.7 24 1484.3 21.5L1500 19L1500 0L1484.3 0C1468.7 0 1437.3 0 1406.2 0C1375 0 1344 0 1312.8 0C1281.7 0 1250.3 0 1219 0C1187.7 0 1156.3 0 1125 0C1093.7 0 1062.3 0 1031.2 0C1000 0 969 0 937.8 0C906.7 0 875.3 0 844 0C812.7 0 781.3 0 750 0C718.7 0 687.3 0 656.2 0C625 0 594 0 562.8 0C531.7 0 500.3 0 469 0C437.7 0 406.3 0 375 0C343.7 0 312.3 0 281.2 0C250 0 219 0 187.8 0C156.7 0 125.3 0 94 0C62.7 0 31.3 0 15.7 0L0 0Z" fill="#fcc87e"></path><path d="M0 34L15.7 31.3C31.3 28.7 62.7 23.3 94 19.2C125.3 15 156.7 12 187.8 11C219 10 250 11 281.2 13.7C312.3 16.3 343.7 20.7 375 21.8C406.3 23 437.7 21 469 20.5C500.3 20 531.7 21 562.8 19.5C594 18 625 14 656.2 14.8C687.3 15.7 718.7 21.3 750 23.2C781.3 25 812.7 23 844 21.8C875.3 20.7 906.7 20.3 937.8 22.2C969 24 1000 28 1031.2 30.3C1062.3 32.7 1093.7 33.3 1125 31.2C1156.3 29 1187.7 24 1219 22.8C1250.3 21.7 1281.7 24.3 1312.8 24.2C1344 24 1375 21 1406.2 18.8C1437.3 16.7 1468.7 15.3 1484.3 14.7L1500 14L1500 0L1484.3 0C1468.7 0 1437.3 0 1406.2 0C1375 0 1344 0 1312.8 0C1281.7 0 1250.3 0 1219 0C1187.7 0 1156.3 0 1125 0C1093.7 0 1062.3 0 1031.2 0C1000 0 969 0 937.8 0C906.7 0 875.3 0 844 0C812.7 0 781.3 0 750 0C718.7 0 687.3 0 656.2 0C625 0 594 0 562.8 0C531.7 0 500.3 0 469 0C437.7 0 406.3 0 375 0C343.7 0 312.3 0 281.2 0C250 0 219 0 187.8 0C156.7 0 125.3 0 94 0C62.7 0 31.3 0 15.7 0L0 0Z" fill="#fec382"></path><path d="M0 13L15.7 13C31.3 13 62.7 13 94 14.7C125.3 16.3 156.7 19.7 187.8 19.2C219 18.7 250 14.3 281.2 12.7C312.3 11 343.7 12 375 14.2C406.3 16.3 437.7 19.7 469 21C500.3 22.3 531.7 21.7 562.8 21.2C594 20.7 625 20.3 656.2 20.2C687.3 20 718.7 20 750 18.2C781.3 16.3 812.7 12.7 844 12.8C875.3 13 906.7 17 937.8 17.2C969 17.3 1000 13.7 1031.2 14C1062.3 14.3 1093.7 18.7 1125 19C1156.3 19.3 1187.7 15.7 1219 13.5C1250.3 11.3 1281.7 10.7 1312.8 11.5C1344 12.3 1375 14.7 1406.2 15.8C1437.3 17 1468.7 17 1484.3 17L1500 17L1500 0L1484.3 0C1468.7 0 1437.3 0 1406.2 0C1375 0 1344 0 1312.8 0C1281.7 0 1250.3 0 1219 0C1187.7 0 1156.3 0 1125 0C1093.7 0 1062.3 0 1031.2 0C1000 0 969 0 937.8 0C906.7 0 875.3 0 844 0C812.7 0 781.3 0 750 0C718.7 0 687.3 0 656.2 0C625 0 594 0 562.8 0C531.7 0 500.3 0 469 0C437.7 0 406.3 0 375 0C343.7 0 312.3 0 281.2 0C250 0 219 0 187.8 0C156.7 0 125.3 0 94 0C62.7 0 31.3 0 15.7 0L0 0Z" fill="#ffbf86"></path></svg>