<svg id="visual" viewBox="0 0 1440 1024" width="1440" height="1024" xmlns="http://www.w3.org/2000/svg" xmlns:xlink="http://www.w3.org/1999/xlink" version="1.1"><rect x="0" y="0" width="1440" height="1024" fill="#fff"></rect><defs><linearGradient id="grad1_0" x1="28.9%" y1="0%" x2="100%" y2="100%"><stop offset="21.875%" stop-color="#c2f784" stop-opacity="1"></stop><stop offset="78.125%" stop-color="#c2f784" stop-opacity="1"></stop></linearGradient></defs><defs><linearGradient id="grad1_1" x1="28.9%" y1="0%" x2="100%" y2="100%"><stop offset="21.875%" stop-color="#c2f784" stop-opacity="1"></stop><stop offset="78.125%" stop-color="#e3fbc2" stop-opacity="1"></stop></linearGradient></defs><defs><linearGradient id="grad1_2" x1="28.9%" y1="0%" x2="100%" y2="100%"><stop offset="21.875%" stop-color="#ffffff" stop-opacity="1"></stop><stop offset="78.125%" stop-color="#e3fbc2" stop-opacity="1"></stop></linearGradient></defs><defs><linearGradient id="grad2_0" x1="0%" y1="0%" x2="71.1%" y2="100%"><stop offset="21.875%" stop-color="#c2f784" stop-opacity="1"></stop><stop offset="78.125%" stop-color="#c2f784" stop-opacity="1"></stop></linearGradient></defs><defs><linearGradient id="grad2_1" x1="0%" y1="0%" x2="71.1%" y2="100%"><stop offset="21.875%" stop-color="#e3fbc2" stop-opacity="1"></stop><stop offset="78.125%" stop-color="#c2f784" stop-opacity="1"></stop></linearGradient></defs><defs><linearGradient id="grad2_2" x1="0%" y1="0%" x2="71.1%" y2="100%"><stop offset="21.875%" stop-color="#e3fbc2" stop-opacity="1"></stop><stop offset="78.125%" stop-color="#ffffff" stop-opacity="1"></stop></linearGradient></defs><g transform="translate(1440, 0)"><path d="M0 574.3C-48.5 565.3 -97 556.2 -146.2 545.7C-195.5 535.3 -245.5 523.3 -287.1 497.3C-328.7 471.4 -361.9 431.4 -392.4 392.4C-423 353.5 -451 315.6 -476.3 275C-501.6 234.4 -524.1 191 -540 144.7C-555.8 98.4 -565 49.2 -574.3 0L0 0Z" fill="#f1fde1"></path><path d="M0 382.8C-32.3 376.8 -64.6 370.8 -97.5 363.8C-130.3 356.8 -163.7 348.9 -191.4 331.6C-219.1 314.2 -241.2 287.6 -261.6 261.6C-282 235.7 -300.7 210.4 -317.5 183.3C-334.4 156.2 -349.4 127.3 -360 96.5C-370.5 65.6 -376.7 32.8 -382.8 0L0 0Z" fill="#d3f9a4"></path><path d="M0 191.4C-16.2 188.4 -32.3 185.4 -48.7 181.9C-65.2 178.4 -81.8 174.4 -95.7 165.8C-109.6 157.1 -120.6 143.8 -130.8 130.8C-141 117.8 -150.3 105.2 -158.8 91.7C-167.2 78.1 -174.7 63.7 -180 48.2C-185.3 32.8 -188.3 16.4 -191.4 0L0 0Z" fill="#c2f784"></path></g><g transform="translate(0, 1024)"><path d="M0 -574.3C49.1 -568.6 98.2 -562.9 148 -552.5C197.9 -542.1 248.5 -527 287.1 -497.3C325.8 -467.6 352.6 -423.3 386.8 -386.8C421 -350.2 462.6 -321.5 488.4 -282C514.3 -242.5 524.4 -192.4 536.1 -143.6C547.8 -94.9 561 -47.4 574.3 0L0 0Z" fill="#f1fde1"></path><path d="M0 -382.8C32.7 -379.1 65.5 -375.3 98.7 -368.3C131.9 -361.4 165.6 -351.4 191.4 -331.6C217.2 -311.8 235.1 -282.2 257.9 -257.9C280.7 -233.5 308.4 -214.3 325.6 -188C342.9 -161.7 349.6 -128.3 357.4 -95.8C365.2 -63.2 374 -31.6 382.8 0L0 0Z" fill="#d3f9a4"></path><path d="M0 -191.4C16.4 -189.5 32.7 -187.6 49.3 -184.2C66 -180.7 82.8 -175.7 95.7 -165.8C108.6 -155.9 117.5 -141.1 128.9 -128.9C140.3 -116.7 154.2 -107.2 162.8 -94C171.4 -80.8 174.8 -64.1 178.7 -47.9C182.6 -31.6 187 -15.8 191.4 0L0 0Z" fill="#c2f784"></path></g></svg>